HIERARCHY
ROOT Hips
{
	OFFSET 0.00000 0.00000 0.00000
	CHANNELS 6 Xposition Yposition Zposition Zrotation Yrotation Xrotation 
	JOINT LHipJoint
	{
		OFFSET 0 0 0
		CHANNELS 3 Zrotation Yrotation Xrotation
		JOINT LeftHip
		{
			OFFSET 1.57338 -1.94743 0.52196
			CHANNELS 3 Zrotation Yrotation Xrotation
			JOINT LeftKnee
			{
				OFFSET 2.60333 -7.15259 0.00000
				CHANNELS 3 Zrotation Yrotation Xrotation
				JOINT LeftAnkle
				{
					OFFSET 2.77855 -7.63400 0.00000
					CHANNELS 3 Zrotation Yrotation Xrotation
					JOINT LeftToe
					{
						OFFSET 0.19847 -0.54529 2.28466
						CHANNELS 3 Zrotation Yrotation Xrotation
						End Site
						{
							OFFSET 0.00000 -0.00000 1.17993
						}
					}
				}
			}
		}
	}
	JOINT RHipJoint
	{
		OFFSET 0 0 0
		CHANNELS 3 Zrotation Yrotation Xrotation
		JOINT RightHip
		{
			OFFSET -1.61527 -1.94743 0.52196
			CHANNELS 3 Zrotation Yrotation Xrotation
			JOINT RightKnee
			{
				OFFSET -2.53829 -6.97390 0.00000
				CHANNELS 3 Zrotation Yrotation Xrotation
				JOINT RightAnkle
				{
					OFFSET -2.80762 -7.71387 0.00000
					CHANNELS 3 Zrotation Yrotation Xrotation
					JOINT RightToe
					{
						OFFSET -0.30536 -0.83898 2.28801
						CHANNELS 3 Zrotation Yrotation Xrotation
						End Site
						{
							OFFSET -0.00000 -0.00000 1.21323
						}
					}
				}
			}
		}
	}
	JOINT lowerback
	{
		OFFSET 0 0 0
		CHANNELS 3 Zrotation Yrotation Xrotation
		JOINT Chest
		{
			OFFSET -0.04381 1.99497 -0.19778
			CHANNELS 3 Zrotation Yrotation Xrotation
			JOINT Chest2
			{
				OFFSET -0.01959 2.01295 -0.04372
				CHANNELS 3 Zrotation Yrotation Xrotation
				JOINT lowerneck
				{
					OFFSET 0 0 0
					CHANNELS 3 Zrotation Yrotation Xrotation
					JOINT Neck
					{
						OFFSET -0.05459 1.76913 0.09708
						CHANNELS 3 Zrotation Yrotation Xrotation
						JOINT Head
						{
							OFFSET 0.09461 1.77368 -0.11172
							CHANNELS 3 Zrotation Yrotation Xrotation
							End Site
							{
								OFFSET 0.03812 1.78157 -0.04834
							}
						}
					}
				}
				JOINT LeftCollar
				{
					OFFSET 0 0 0
					CHANNELS 3 Zrotation Yrotation Xrotation
					JOINT LeftShoulder
					{
						OFFSET 3.50922 1.24034 -0.28866
CHANNELS 3 Zrotation Xrotation Yrotation
						JOINT LeftElbow
						{
OFFSET 0 -5.401880 0.000000
CHANNELS 3 Zrotation Xrotation Yrotation
							JOINT LeftWrist
							{
OFFSET 0 -3.685590 0.000000
CHANNELS 3 Zrotation Xrotation Yrotation
								JOINT lhand
								{
									OFFSET 0 0 0
CHANNELS 3 Zrotation Xrotation Yrotation
									JOINT LFingers
									{
OFFSET 0 -0.617530 0.000000
CHANNELS 3 Zrotation Xrotation Yrotation
										End Site
										{
OFFSET 0 -0.497870 0.000000
										}
									}
								}
								JOINT LThumb
								{
OFFSET 0 0.000000 0.000000
CHANNELS 3 Zrotation Xrotation Yrotation
									End Site
									{
OFFSET 0 -0.505470 0.505470
									}
								}
							}
						}
					}
				}
				JOINT RightCollar
				{
					OFFSET 0 0 0
					CHANNELS 3 Zrotation Yrotation Xrotation
					JOINT RightShoulder
					{
						OFFSET -2.95373 1.39649 -0.27346
CHANNELS 3 Zrotation Xrotation Yrotation
						JOINT RightElbow
						{
OFFSET 0 -6.106700 -0.000000
CHANNELS 3 Zrotation Xrotation Yrotation
							JOINT RightWrist
							{
OFFSET 0 -3.630520 0.000000
CHANNELS 3 Zrotation Xrotation Yrotation
								JOINT rhand
								{
									OFFSET 0 0 0
CHANNELS 3 Zrotation Xrotation Yrotation
									JOINT RFingers
									{
OFFSET 0 -0.583850 0.000000
CHANNELS 3 Zrotation Xrotation Yrotation
										End Site
										{
OFFSET 0 -0.470710 0.000000
										}
									}
								}
								JOINT RThumb
								{
OFFSET 0 0.000000 0.000000
CHANNELS 3 Zrotation Xrotation Yrotation
									End Site
									{
OFFSET 0 -0.477900 0.477900
									}
								}
							}
						}
					}
				}
			}
		}
	}
}
MOTION
Frames: 8
Frame Time: 0.008333333333333333
1.140794 18.367658 1.360087 -2.328890 -44.657453 -3.644102 0.000000 0.000000 0.000000 -16.165593 -3.374698 -13.665781 3.708362 11.761641 34.894162 0.501220 3.867709 -15.349847 0.074744 -1.755398 -4.830403 0.000000 0.000000 0.000000 17.950175 4.793479 8.727477 -5.218221 -13.625274 41.756817 -0.183363 -5.385921 -11.794632 -1.431593 7.564780 -21.400047 0.095272 0.216791 2.027393 0.807523 0.289386 0.948891 0.766727 0.141592 -0.168572 -8.254428 -0.286338 -3.996957 0.859990 0.137060 12.392475 1.617142 -0.292595 4.376325 0.000000 0.000000 0.000000 57.453475 -33.626699 -53.825095 34.496310 -44.441354 14.462075 0.059514 -4.932603 -19.844166 0.000000 0.000000 0.000000 -7.125000 0.000000 0.000000 -27.002995 47.827505 2.023115 0.000000 0.000000 0.000000 -20.504870 -9.828913 27.734784 -6.330960 -10.811884 -0.601200 -21.472682 34.315308 -3.783460 0.000000 0.000000 0.000000 7.125000 0.000000 0.000000 3.901767 25.912215 1.808003
1.039062 18.465961 1.721718 -2.595621 -43.973700 -5.343928 0.000000 0.000000 0.000000 -16.942030 -2.434617 -8.998050 3.197053 11.006317 32.302513 0.545203 3.788583 -15.845923 0.084348 -1.865001 -5.132888 0.000000 0.000000 0.000000 17.101904 5.236083 9.751343 -5.690962 -14.121533 43.727463 0.094522 -5.816389 -3.944782 -1.035140 6.463450 -18.137973 0.145440 0.287707 0.521971 0.757012 0.379666 0.732702 0.692649 0.187543 0.452738 -8.497545 0.161340 -3.915180 -0.436885 0.969324 16.497300 1.316327 -0.132928 5.613628 0.000000 0.000000 0.000000 65.433212 -38.402456 -44.920389 29.408564 -40.375922 11.026311 1.736081 -0.918157 -19.601277 0.000000 0.000000 0.000000 -7.125000 0.000000 0.000000 -25.397891 47.839849 1.897160 0.000000 0.000000 0.000000 -27.171090 -18.398583 32.527247 -9.965995 -16.681615 -1.469174 -24.011199 25.307000 -2.580760 0.000000 0.000000 0.000000 7.125000 0.000000 0.000000 1.979651 27.153535 0.858927
0.943296 18.567092 2.074585 -2.046231 -43.748244 -6.985181 0.000000 0.000000 0.000000 -18.702396 -3.102578 -4.047762 2.594214 10.006207 28.997726 0.489280 5.998669 -16.765031 0.052791 -1.465248 -4.030208 0.000000 0.000000 0.000000 15.486463 6.390828 9.316364 -6.423798 -14.826181 46.658561 -0.028355 -5.592415 4.630671 -0.396814 4.029665 -11.162070 -0.032396 0.567788 -1.065586 0.589338 0.751327 0.434632 0.635966 0.373136 1.033602 -8.747881 0.576125 -3.478540 -1.371033 1.713411 19.311877 1.117094 0.015655 6.419036 0.000000 0.000000 0.000000 73.584538 -41.659092 -31.500558 26.088058 -37.294907 8.941180 6.021947 3.880988 -19.071954 0.000000 0.000000 0.000000 -7.125000 0.000000 0.000000 -21.302319 47.943899 1.616312 0.000000 0.000000 0.000000 -35.876122 -25.649637 33.748721 -15.637379 -25.020404 -3.494699 -24.661264 18.768357 4.229691 0.000000 0.000000 0.000000 7.125000 0.000000 0.000000 1.659726 34.622322 0.406170
0.832664 18.630515 2.418500 -0.957687 -43.375494 -8.718787 0.000000 0.000000 0.000000 -20.902924 -4.010996 0.622252 2.071875 9.013453 25.837949 0.483837 7.736755 -18.186015 0.002474 -0.287788 -0.790667 0.000000 0.000000 0.000000 13.697669 7.799635 8.297686 -7.267130 -15.552111 49.876373 -0.439185 -4.167780 11.776162 -0.216630 2.989322 -8.249553 -0.669175 0.942373 -2.142362 0.387790 1.268099 0.108884 0.812766 0.627685 1.288711 -8.880610 0.756170 -3.495176 -1.802112 2.115635 21.409218 1.035652 0.060633 7.098393 0.000000 0.000000 0.000000 82.423859 -43.592369 -15.893965 24.626425 -35.819474 8.070305 10.450661 4.960466 -20.558045 0.000000 0.000000 0.000000 -7.125000 0.000000 0.000000 -17.864458 49.991493 2.258394 0.000000 0.000000 0.000000 -46.803785 -31.369621 28.423444 -21.190795 -32.042493 -6.154523 -28.863222 13.843886 0.928551 0.000000 0.000000 0.000000 7.125000 0.000000 0.000000 -1.822959 31.037812 -0.619132
0.699672 18.650773 2.731595 0.087672 -42.561470 -10.141456 0.000000 0.000000 0.000000 -22.591438 -3.866931 4.098193 1.687273 8.180661 23.264927 0.456961 8.334428 -18.434860 0.001719 -0.260240 -0.715092 0.000000 0.000000 0.000000 11.972657 8.507011 6.675914 -8.157680 -16.233502 53.127856 -0.582176 -2.953462 13.704480 -0.044147 1.355785 -3.728358 -1.260452 1.221203 -2.872802 -0.072025 1.668442 -0.131529 0.699687 0.824329 1.440723 -8.587423 0.829828 -3.067442 -1.545104 2.106629 21.851383 1.069932 0.084459 7.162385 0.000000 0.000000 0.000000 92.447570 -44.163748 0.516276 23.529369 -34.662378 7.437225 16.071545 4.983421 -21.846486 0.000000 0.000000 0.000000 -7.125000 0.000000 0.000000 -13.018141 52.162644 2.323513 0.000000 0.000000 0.000000 -58.915699 -35.514934 19.215850 -26.372203 -37.568954 -9.115629 -30.403290 11.570133 -1.707784 0.000000 0.000000 0.000000 7.125000 0.000000 0.000000 -2.955869 27.995247 -1.224928
0.538702 18.630265 2.992444 1.019580 -40.716330 -11.226221 0.000000 0.000000 0.000000 -23.894547 -4.118816 6.400012 1.527460 7.803214 22.118111 0.530770 7.555379 -18.552427 0.000990 0.200015 0.549462 0.000000 0.000000 0.000000 10.206031 7.873350 4.603981 -8.925105 -16.759082 55.830405 -0.258805 -3.333345 9.012534 -0.169138 2.640494 -7.279847 -2.421816 1.228383 -2.946602 -0.529257 1.717370 -0.386842 0.880865 0.846059 1.199351 -8.255492 0.506256 -2.910077 -1.404604 1.588797 21.690161 1.025163 -0.113262 7.096240 0.000000 0.000000 0.000000 101.929312 -43.279830 17.073004 23.094764 -34.192277 7.191489 21.958510 6.053695 -21.803059 0.000000 0.000000 0.000000 -7.125000 0.000000 0.000000 -7.121764 53.173426 1.433377 0.000000 0.000000 0.000000 -71.118493 -37.610828 6.720611 -30.376544 -41.211603 -11.657752 -33.523117 9.546578 -2.680096 0.000000 0.000000 0.000000 7.125000 0.000000 0.000000 -5.284634 26.757446 -2.349151
0.399785 18.607166 3.229878 0.249712 -38.330732 -10.766896 0.000000 0.000000 0.000000 -23.479208 -4.440468 6.849286 1.644814 8.083277 22.967437 0.683239 5.450943 -18.539329 0.000100 -0.071394 -0.196259 0.000000 0.000000 0.000000 9.735747 6.347147 1.964867 -9.327446 -17.013831 57.215694 0.025372 -4.320432 1.797277 -0.180898 2.738850 -7.552610 -2.254853 1.094913 -2.726215 -0.737054 1.527621 -0.506789 0.561318 0.755302 0.969249 -8.214660 -0.123616 -3.243069 -0.853193 0.648875 21.063221 1.133823 -0.482104 6.975336 0.000000 0.000000 0.000000 109.908346 -41.446116 33.235001 23.528999 -34.661764 7.437211 24.973754 7.984110 -24.403350 0.000000 0.000000 0.000000 -7.125000 0.000000 0.000000 -4.893276 56.501234 1.379234 0.000000 0.000000 0.000000 -82.568994 -37.476695 -7.748425 -33.846697 -43.968813 -14.007201 -34.305952 8.577018 -2.366659 0.000000 0.000000 0.000000 7.125000 0.000000 0.000000 -5.905813 27.103242 -2.579445
0.285577 18.576384 3.430818 -0.175460 -35.825435 -10.483602 0.000000 0.000000 0.000000 -23.279294 -4.962149 7.290898 1.728639 8.276358 23.556729 0.804061 3.557221 -18.590700 0.000131 -0.065679 -0.180522 0.000000 0.000000 0.000000 8.992828 4.593434 -1.013920 -9.376948 -17.044250 57.384784 0.069269 -6.046591 -6.231638 -0.165078 2.617416 -7.215245 -2.196425 0.973067 -1.829993 -0.894791 1.334353 -0.683432 0.341350 0.666323 0.296548 -8.658733 -0.777534 -2.768981 -0.250474 -0.380736 19.780819 1.331067 -0.906546 6.517258 0.000000 0.000000 0.000000 114.958994 -39.131822 47.921180 25.694528 -36.903436 8.704390 23.850159 6.182121 -24.410271 0.000000 0.000000 0.000000 -7.125000 0.000000 0.000000 -6.104249 56.266759 1.691064 0.000000 0.000000 0.000000 -92.561570 -35.841921 -21.847197 -36.867292 -46.099273 -16.144748 -34.619828 8.409549 -2.015230 0.000000 0.000000 0.000000 7.125000 0.000000 0.000000 -6.175607 27.515892 -2.637884
